<svg width="526" height="565" viewBox="0 0 526 565" fill="none" xmlns="http://www.w3.org/2000/svg">
<g clip-path="url(#clip0_7492_542)">
<path fill-rule="evenodd" clip-rule="evenodd" d="M-359.467 -26.3331V-102.6L-283.2 -102.6V-26.3331L-359.467 -26.3331ZM-360 -25.7997V50.467L-584 50.4671V51.0004L-360 51.0004V127.267H-584V127.8H-360V204.067H-584V204.601H-360L-360 280.867H-584V281.401H-360V357.667H-584V358.201H-360L-360 434.467H-584V435.001H-360V511.267H-584V511.801H-360L-360 588.067H-584V588.601H-360V627H-359.467V588.601H-283.2V627H-282.667V588.601H-206.4V627H-205.866V588.601H-129.6V627H-129.066V588.601H-52.7997V627H-52.2664V588.601H24.0005V627H24.5339V588.601H100.801V627H101.334V588.601H177.601V627H178.134V588.601H254.4V627H254.934V588.601L331.201 588.601V627H331.734V588.601H408.001V627H408.534V588.601H484.801V627H485.334V588.601H561.601V627H562.134V588.601H638.401V627H638.934V588.601H715.201V627H715.734V588.601H792.001V627H792.534V588.601H1110.4V588.067H792.534V511.801H1110.4V511.267H792.534V435.001H1110.4V434.467H792.534V358.201H1110.4V357.667H792.534V281.4H1110.4V280.867H792.534V204.6H1110.4V204.067H792.534V127.8H1110.4V127.267H792.534V51.0004L1110.4 51.0003V50.467L792.534 50.467V-25.7998L1110.4 -25.7998V-26.3331L792.534 -26.3331V-102.6L1110.4 -102.6V-103.133L792.534 -103.133V-141H792.001V-103.133L715.734 -103.133V-141H715.201V-103.133L638.934 -103.133V-141H638.401V-103.133L562.134 -103.133V-141H561.601V-103.133L485.334 -103.133V-141H484.801V-103.133H408.534V-141H408.001V-103.133L331.734 -103.133V-141H331.201V-103.133L254.934 -103.133V-141H254.4V-103.133L178.134 -103.133V-141H177.6V-103.133L101.334 -103.133V-141H100.8V-103.133L24.5338 -103.133V-141H24.0005V-103.133H-52.2665V-141H-52.7998V-103.133L-129.066 -103.133V-141H-129.6V-103.133L-205.866 -103.133V-141H-206.4V-103.133L-282.667 -103.133V-141H-283.2V-103.133L-359.467 -103.133V-141H-360V-103.133L-584 -103.133V-102.6L-360 -102.6V-26.3331L-584 -26.3331V-25.7997L-360 -25.7997ZM792.001 588.067L792.001 511.801H715.734V588.067H792.001ZM715.201 588.067L715.201 511.801H638.934V588.067H715.201ZM638.401 588.067L638.401 511.801H562.134V588.067H638.401ZM561.601 588.067L561.601 511.801H485.334V588.067H561.601ZM484.801 588.067L484.801 511.801H408.534L408.534 588.067H484.801ZM408.001 588.067L408.001 511.801H331.734L331.734 588.067H408.001ZM331.201 588.067L331.201 511.801L254.934 511.801L254.934 588.067L331.201 588.067ZM254.4 588.067L254.4 511.801H178.134L178.134 588.067H254.4ZM177.601 588.067L177.6 511.801H101.334L101.334 588.067H177.601ZM100.801 588.067L100.8 511.801H24.5338L24.5339 588.067H100.801ZM24.0005 588.067L24.0005 511.801H-52.2665L-52.2664 588.067H24.0005ZM-52.7997 588.067L-52.7998 511.801H-129.066L-129.066 588.067H-52.7997ZM-129.6 588.067L-129.6 511.801H-205.866L-205.866 588.067H-129.6ZM-206.4 588.067L-206.4 511.801H-282.667L-282.667 588.067H-206.4ZM-283.2 588.067L-283.2 511.801H-359.467L-359.467 588.067H-283.2ZM-283.2 511.267H-359.467V435.001H-283.2V511.267ZM-206.4 511.267H-282.667V435.001H-206.4V511.267ZM-129.6 511.267H-205.866V435.001H-129.6V511.267ZM-52.7998 511.267H-129.066V435.001H-52.7998V511.267ZM24.0005 511.267H-52.2665V435.001H24.0005V511.267ZM100.8 511.267H24.5338V435.001H100.8V511.267ZM177.6 511.267H101.334V435.001H177.6V511.267ZM254.4 511.267H178.134V435.001H254.4V511.267ZM331.201 511.267L254.934 511.267V435.001L331.201 435.001V511.267ZM408.001 511.267H331.734V435.001H408.001V511.267ZM484.801 511.267H408.534V435.001H484.801V511.267ZM561.601 511.267H485.334V435.001H561.601V511.267ZM638.401 511.267H562.134V435.001H638.401V511.267ZM715.201 511.267H638.934V435.001H715.201V511.267ZM792.001 511.267H715.734V435.001H792.001V511.267ZM792.001 434.467V358.201H715.734V434.467H792.001ZM715.201 434.467V358.201L638.934 358.201V434.467H715.201ZM638.401 434.467V358.201H562.134V434.467H638.401ZM561.601 434.467V358.201H485.334V434.467H561.601ZM484.801 434.467V358.201H408.534V434.467H484.801ZM408.001 434.467V358.201H331.734V434.467H408.001ZM331.201 434.467V358.201H254.934V434.467L331.201 434.467ZM254.4 434.467V358.201H178.134V434.467H254.4ZM177.6 434.467V358.201H101.334V434.467H177.6ZM100.8 434.467V358.201H24.5338V434.467H100.8ZM24.0005 434.467V358.201H-52.2665V434.467H24.0005ZM-52.7998 434.467V358.201H-129.066L-129.066 434.467H-52.7998ZM-129.6 434.467L-129.6 358.201L-205.866 358.201L-205.866 434.467H-129.6ZM-206.4 434.467L-206.4 358.201H-282.667L-282.667 434.467H-206.4ZM-283.2 434.467L-283.2 358.201H-359.467L-359.467 434.467H-283.2ZM-283.2 357.667H-359.467V281.401H-283.2V357.667ZM-206.4 357.667H-282.667V281.401H-206.4V357.667ZM-129.6 357.667L-205.866 357.667V281.401L-129.6 281.4V357.667ZM-52.7998 357.667H-129.066V281.4H-52.7998V357.667ZM24.0005 357.667H-52.2665V281.4H24.0005V357.667ZM100.8 357.667H24.5338V281.4H100.8V357.667ZM177.6 357.667H101.334V281.4H177.6V357.667ZM254.4 357.667H178.134V281.4H254.4V357.667ZM331.201 357.667H254.934V281.4H331.201V357.667ZM408.001 357.667H331.734V281.4H408.001V357.667ZM484.801 357.667H408.534V281.4H484.801V357.667ZM561.601 357.667H485.334V281.4H561.601V357.667ZM638.401 357.667H562.134V281.4H638.401V357.667ZM715.201 357.667L638.934 357.667V281.4L715.201 281.4V357.667ZM792.001 357.667H715.734V281.4H792.001V357.667ZM792.001 280.867V204.6H715.734V280.867H792.001ZM715.201 280.867V204.6L638.934 204.6V280.867L715.201 280.867ZM638.401 280.867V204.6H562.134V280.867H638.401ZM561.601 280.867V204.6H485.334V280.867H561.601ZM484.801 280.867V204.6H408.534V280.867H484.801ZM408.001 280.867V204.6H331.734V280.867H408.001ZM331.201 280.867V204.6H254.934V280.867H331.201ZM254.4 280.867V204.6H178.134V280.867H254.4ZM177.6 280.867V204.6H101.334V280.867H177.6ZM100.8 280.867V204.6H24.5338V280.867H100.8ZM24.0005 280.867V204.6H-52.2665V280.867H24.0005ZM-52.7998 280.867V204.6H-129.066V280.867H-52.7998ZM-129.6 280.867V204.6L-205.866 204.601V280.867L-129.6 280.867ZM-206.4 280.867V204.601H-282.667V280.867H-206.4ZM-283.2 280.867V204.601H-359.467L-359.467 280.867H-283.2ZM-283.2 204.067H-359.467V127.8H-283.2V204.067ZM-206.4 204.067H-282.667V127.8H-206.4V204.067ZM-129.6 204.067L-205.866 204.067V127.8L-129.6 127.8V204.067ZM-52.7998 204.067H-129.066V127.8H-52.7998V204.067ZM24.0005 204.067H-52.2665V127.8H24.0005V204.067ZM100.8 204.067H24.5338V127.8H100.8V204.067ZM177.6 204.067H101.334V127.8H177.6V204.067ZM254.4 204.067H178.134V127.8H254.4V204.067ZM331.201 204.067H254.934V127.8H331.201V204.067ZM408.001 204.067H331.734V127.8H408.001V204.067ZM484.801 204.067H408.534V127.8H484.801V204.067ZM561.601 204.067H485.334V127.8H561.601V204.067ZM638.401 204.067H562.134V127.8H638.401V204.067ZM715.201 204.067L638.934 204.067V127.8L715.201 127.8V204.067ZM792.001 204.067H715.734V127.8H792.001V204.067ZM792.001 127.267V51.0004H715.734V127.267H792.001ZM715.201 127.267V51.0004H638.934V127.267L715.201 127.267ZM638.401 127.267V51.0004H562.134V127.267H638.401ZM561.601 127.267V51.0004H485.334V127.267H561.601ZM484.801 127.267V51.0004L408.534 51.0004V127.267H484.801ZM408.001 127.267V51.0004H331.734V127.267H408.001ZM331.201 127.267V51.0004H254.934V127.267H331.201ZM254.4 127.267V51.0004H178.134V127.267H254.4ZM177.6 127.267V51.0004H101.334V127.267H177.6ZM100.8 127.267V51.0004L24.5338 51.0004V127.267H100.8ZM24.0005 127.267V51.0004H-52.2665V127.267H24.0005ZM-52.7998 127.267V51.0004H-129.066V127.267H-52.7998ZM-129.6 127.267V51.0004H-205.866V127.267L-129.6 127.267ZM-206.4 127.267V51.0004H-282.667V127.267H-206.4ZM-283.2 127.267V51.0004H-359.467L-359.467 127.267H-283.2ZM-283.2 50.467H-359.467V-25.7997L-283.2 -25.7998V50.467ZM-206.4 50.467H-282.667V-25.7998H-206.4V50.467ZM-129.6 50.467H-205.866V-25.7998H-129.6V50.467ZM-52.7998 50.467H-129.066V-25.7998L-52.7998 -25.7998V50.467ZM24.0005 50.467H-52.2665V-25.7998H24.0005V50.467ZM100.8 50.467L24.5338 50.467V-25.7998L100.8 -25.7998V50.467ZM177.6 50.467H101.334V-25.7998H177.6V50.467ZM254.4 50.467H178.134V-25.7998H254.4V50.467ZM331.201 50.467H254.934V-25.7998L331.201 -25.7998V50.467ZM408.001 50.467H331.734V-25.7998H408.001V50.467ZM484.801 50.467L408.534 50.467V-25.7998L484.801 -25.7998V50.467ZM561.601 50.467H485.334V-25.7998H561.601V50.467ZM638.401 50.467H562.134V-25.7998H638.401V50.467ZM715.201 50.467H638.934V-25.7998L715.201 -25.7998V50.467ZM792.001 50.467H715.734V-25.7998H792.001V50.467ZM792.001 -26.3331V-102.6L715.734 -102.6V-26.3331H792.001ZM715.201 -26.3331V-102.6L638.934 -102.6V-26.3331L715.201 -26.3331ZM638.401 -26.3331V-102.6L562.134 -102.6V-26.3331H638.401ZM561.601 -26.3331V-102.6L485.334 -102.6V-26.3331H561.601ZM484.801 -26.3331V-102.6H408.534V-26.3331L484.801 -26.3331ZM408.001 -26.3331V-102.6L331.734 -102.6V-26.3331H408.001ZM331.201 -26.3331V-102.6L254.934 -102.6V-26.3331L331.201 -26.3331ZM254.4 -26.3331V-102.6L178.134 -102.6V-26.3331H254.4ZM177.6 -26.3331V-102.6L101.334 -102.6V-26.3331H177.6ZM100.8 -26.3331V-102.6L24.5338 -102.6V-26.3331L100.8 -26.3331ZM24.0005 -26.3331V-102.6H-52.2665V-26.3331H24.0005ZM-52.7998 -26.3331V-102.6L-129.066 -102.6V-26.3331L-52.7998 -26.3331ZM-129.6 -26.3331V-102.6L-205.866 -102.6V-26.3331H-129.6ZM-206.4 -26.3331V-102.6L-282.667 -102.6V-26.3331H-206.4Z" fill="url(#paint0_linear_7492_542)" fill-opacity="0.2"/>
</g>
<defs>
<linearGradient id="paint0_linear_7492_542" x1="263.467" y1="-57.8" x2="263.467" y2="309.667" gradientUnits="userSpaceOnUse">
<stop stop-color="white"/>
<stop offset="1" stop-color="white" stop-opacity="0"/>
</linearGradient>
<clipPath id="clip0_7492_542">
<rect width="526" height="565" rx="20" fill="white"/>
</clipPath>
</defs>
</svg>
