<svg xmlns="http://www.w3.org/2000/svg" xmlns:xlink="http://www.w3.org/1999/xlink" width="404" zoomAndPan="magnify" viewBox="0 0 303 127.500001" height="170" preserveAspectRatio="xMidYMid meet" version="1.0"><defs><g/><clipPath id="110c9c40ea"><path d="M 145.777344 0 L 248 0 L 248 80.683594 L 145.777344 80.683594 Z M 145.777344 0 " clip-rule="nonzero"/></clipPath></defs><g clip-path="url(#110c9c40ea)"><path fill="#ffffff" d="M 230.65625 36.160156 C 230.964844 36.226562 214.210938 36.363281 214.210938 36.363281 L 214.210938 35.402344 L 222.632812 35.402344 C 225.105469 35.402344 237.863281 35.402344 237.863281 18.609375 C 237.863281 1.8125 222.796875 1.476562 220.324219 1.476562 C 220.132812 1.476562 216.265625 1.617188 216.265625 1.617188 L 207.078125 1.617188 L 185.851562 64.175781 L 180.519531 80.289062 L 178.921875 80.289062 L 153.765625 1.617188 L 145.777344 1.617188 L 145.777344 0.0195312 L 174.132812 0.0195312 L 174.132812 1.617188 L 166.144531 1.617188 L 184.9375 62.488281 L 205.484375 1.617188 L 196.296875 1.617188 L 196.296875 0.0195312 C 196.296875 0.0195312 220.121094 0.164062 220.324219 0.164062 C 234.605469 0.164062 247.902344 3.265625 247.902344 18.609375 C 247.902344 29.863281 240.457031 34.664062 230.65625 36.160156 Z M 230.65625 44.671875 C 230.964844 44.609375 214.210938 44.46875 214.210938 44.46875 L 214.210938 45.429688 C 217.566406 45.429688 220.625 45.429688 222.046875 45.429688 C 222.292969 45.429688 222.488281 45.429688 222.632812 45.429688 C 225.105469 45.429688 237.863281 45.429688 237.863281 62.226562 C 237.863281 79.019531 222.800781 79.351562 220.328125 79.351562 C 215.511719 79.351562 198.949219 79.054688 194.570312 79.027344 L 194.570312 80.386719 C 198.9375 80.476562 214.992188 80.671875 220.328125 80.671875 C 234.613281 80.671875 247.910156 77.5625 247.910156 62.226562 C 247.902344 50.972656 240.457031 46.175781 230.65625 44.671875 Z M 230.65625 44.671875 " fill-opacity="1" fill-rule="nonzero"/></g><g fill="#ffffff" fill-opacity="1"><g transform="translate(28.49683, 79.927165)"><g><path d="M 9.6875 0.109375 L 2.390625 -20.21875 C 2.222656 -20.675781 2.007812 -21.035156 1.75 -21.296875 C 1.488281 -21.554688 1.132812 -21.753906 0.6875 -21.890625 L -0.140625 -22.15625 L -0.140625 -22.5 L 9.6875 -22.5 L 9.6875 -22.15625 L 8.625 -21.859375 C 8.101562 -21.722656 7.8125 -21.484375 7.75 -21.140625 C 7.695312 -20.796875 7.75 -20.375 7.90625 -19.875 L 12.953125 -4.90625 L 18.03125 -19.90625 C 18.21875 -20.425781 18.304688 -20.859375 18.296875 -21.203125 C 18.285156 -21.546875 18.015625 -21.785156 17.484375 -21.921875 L 16.609375 -22.15625 L 16.609375 -22.5 L 21.375 -22.5 L 21.375 -22.15625 L 20.453125 -21.890625 C 20.023438 -21.773438 19.71875 -21.570312 19.53125 -21.28125 C 19.351562 -21 19.1875 -20.632812 19.03125 -20.1875 L 12.203125 0.109375 Z M 9.6875 0.109375 "/></g></g></g><g fill="#ffffff" fill-opacity="1"><g transform="translate(50.039997, 79.927165)"><g><path d="M 0.75 0 L 0.75 -0.34375 L 1.4375 -0.609375 C 1.882812 -0.773438 2.179688 -0.992188 2.328125 -1.265625 C 2.484375 -1.535156 2.5625 -1.898438 2.5625 -2.359375 L 2.5625 -20.15625 C 2.5625 -20.601562 2.488281 -20.960938 2.34375 -21.234375 C 2.207031 -21.515625 1.90625 -21.734375 1.4375 -21.890625 L 0.75 -22.15625 L 0.75 -22.5 L 9.515625 -22.5 L 9.515625 -22.15625 L 8.828125 -21.890625 C 8.367188 -21.734375 8.066406 -21.515625 7.921875 -21.234375 C 7.773438 -20.960938 7.703125 -20.601562 7.703125 -20.15625 L 7.703125 -2.359375 C 7.703125 -1.898438 7.773438 -1.539062 7.921875 -1.28125 C 8.066406 -1.019531 8.367188 -0.796875 8.828125 -0.609375 L 9.515625 -0.34375 L 9.515625 0 Z M 0.75 0 "/></g></g></g><g fill="#ffffff" fill-opacity="1"><g transform="translate(60.300272, 79.927165)"><g><path d="M 12.484375 0.609375 C 10.273438 0.609375 8.273438 0.160156 6.484375 -0.734375 C 4.703125 -1.628906 3.289062 -2.960938 2.25 -4.734375 C 1.207031 -6.503906 0.6875 -8.675781 0.6875 -11.25 C 0.6875 -13.207031 1.003906 -14.921875 1.640625 -16.390625 C 2.273438 -17.867188 3.140625 -19.109375 4.234375 -20.109375 C 5.335938 -21.109375 6.613281 -21.859375 8.0625 -22.359375 C 9.507812 -22.859375 11.039062 -23.109375 12.65625 -23.109375 C 13.945312 -23.109375 15.132812 -22.960938 16.21875 -22.671875 C 17.3125 -22.378906 18.335938 -21.96875 19.296875 -21.4375 L 19.4375 -17.25 L 19.09375 -17.25 L 17.390625 -19.984375 C 17.160156 -20.410156 16.910156 -20.800781 16.640625 -21.15625 C 16.367188 -21.507812 16.023438 -21.773438 15.609375 -21.953125 C 15.273438 -22.109375 14.941406 -22.226562 14.609375 -22.3125 C 14.273438 -22.394531 13.859375 -22.4375 13.359375 -22.4375 C 12.046875 -22.4375 10.847656 -22.082031 9.765625 -21.375 C 8.679688 -20.664062 7.816406 -19.5 7.171875 -17.875 C 6.523438 -16.25 6.203125 -14.03125 6.203125 -11.21875 C 6.203125 -8.414062 6.507812 -6.203125 7.125 -4.578125 C 7.738281 -2.953125 8.570312 -1.789062 9.625 -1.09375 C 10.6875 -0.40625 11.875 -0.0625 13.1875 -0.0625 C 13.914062 -0.0625 14.492188 -0.113281 14.921875 -0.21875 C 15.359375 -0.320312 15.796875 -0.476562 16.234375 -0.6875 C 16.660156 -0.863281 16.988281 -1.128906 17.21875 -1.484375 C 17.445312 -1.835938 17.648438 -2.21875 17.828125 -2.625 L 19.328125 -5.96875 L 19.671875 -5.96875 L 19.5625 -1.09375 C 18.613281 -0.59375 17.546875 -0.1875 16.359375 0.125 C 15.179688 0.445312 13.890625 0.609375 12.484375 0.609375 Z M 12.484375 0.609375 "/></g></g></g><g fill="#ffffff" fill-opacity="1"><g transform="translate(80.854912, 79.927165)"><g><path d="M 5.3125 0 L 5.3125 -0.34375 L 6.71875 -0.6875 C 7.644531 -0.882812 8.109375 -1.453125 8.109375 -2.390625 L 8.109375 -21.8125 L 5.21875 -21.8125 C 4.375 -21.8125 3.769531 -21.585938 3.40625 -21.140625 C 3.039062 -20.703125 2.65625 -20.097656 2.25 -19.328125 L 1.015625 -16.9375 L 0.6875 -16.9375 L 0.859375 -22.5 L 20.53125 -22.5 L 20.65625 -16.9375 L 20.3125 -16.9375 L 19.09375 -19.328125 C 18.707031 -20.097656 18.332031 -20.703125 17.96875 -21.140625 C 17.601562 -21.585938 17 -21.8125 16.15625 -21.8125 L 13.265625 -21.8125 L 13.265625 -2.390625 C 13.265625 -1.453125 13.726562 -0.882812 14.65625 -0.6875 L 16.0625 -0.34375 L 16.0625 0 Z M 5.3125 0 "/></g></g></g><g fill="#ffffff" fill-opacity="1"><g transform="translate(102.227644, 79.927165)"><g><path d="M 11.421875 0.609375 C 10.035156 0.609375 8.695312 0.359375 7.40625 -0.140625 C 6.125 -0.640625 4.976562 -1.382812 3.96875 -2.375 C 2.957031 -3.363281 2.15625 -4.59375 1.5625 -6.0625 C 0.976562 -7.539062 0.6875 -9.269531 0.6875 -11.25 C 0.6875 -13.207031 0.976562 -14.921875 1.5625 -16.390625 C 2.15625 -17.867188 2.960938 -19.101562 3.984375 -20.09375 C 5.003906 -21.082031 6.15625 -21.832031 7.4375 -22.34375 C 8.726562 -22.851562 10.054688 -23.109375 11.421875 -23.109375 C 12.804688 -23.109375 14.140625 -22.863281 15.421875 -22.375 C 16.710938 -21.894531 17.863281 -21.160156 18.875 -20.171875 C 19.882812 -19.179688 20.679688 -17.941406 21.265625 -16.453125 C 21.859375 -14.960938 22.15625 -13.226562 22.15625 -11.25 C 22.15625 -9.320312 21.859375 -7.613281 21.265625 -6.125 C 20.679688 -4.632812 19.882812 -3.394531 18.875 -2.40625 C 17.863281 -1.414062 16.710938 -0.664062 15.421875 -0.15625 C 14.140625 0.351562 12.804688 0.609375 11.421875 0.609375 Z M 11.421875 -0.109375 C 12.671875 -0.109375 13.679688 -0.441406 14.453125 -1.109375 C 15.222656 -1.773438 15.785156 -2.921875 16.140625 -4.546875 C 16.492188 -6.171875 16.671875 -8.40625 16.671875 -11.25 C 16.671875 -14.113281 16.492188 -16.359375 16.140625 -17.984375 C 15.785156 -19.609375 15.222656 -20.753906 14.453125 -21.421875 C 13.679688 -22.097656 12.671875 -22.4375 11.421875 -22.4375 C 10.191406 -22.4375 9.191406 -22.097656 8.421875 -21.421875 C 7.648438 -20.753906 7.085938 -19.609375 6.734375 -17.984375 C 6.378906 -16.359375 6.203125 -14.113281 6.203125 -11.25 C 6.203125 -8.40625 6.378906 -6.171875 6.734375 -4.546875 C 7.085938 -2.921875 7.648438 -1.773438 8.421875 -1.109375 C 9.191406 -0.441406 10.191406 -0.109375 11.421875 -0.109375 Z M 11.421875 -0.109375 "/></g></g></g><g fill="#ffffff" fill-opacity="1"><g transform="translate(125.066127, 79.927165)"><g><path d="M 0.75 0 L 0.75 -0.34375 L 1.46875 -0.578125 C 1.914062 -0.734375 2.207031 -0.941406 2.34375 -1.203125 C 2.488281 -1.472656 2.5625 -1.84375 2.5625 -2.3125 L 2.5625 -20.15625 C 2.5625 -20.601562 2.5 -20.957031 2.375 -21.21875 C 2.25 -21.476562 1.96875 -21.691406 1.53125 -21.859375 L 0.75 -22.15625 L 0.75 -22.5 L 10.5 -22.5 C 13.1875 -22.5 15.242188 -21.992188 16.671875 -20.984375 C 18.097656 -19.972656 18.8125 -18.570312 18.8125 -16.78125 C 18.8125 -15.78125 18.4375 -14.78125 17.6875 -13.78125 C 16.9375 -12.78125 15.757812 -12.003906 14.15625 -11.453125 L 18.890625 -2.046875 C 19.085938 -1.660156 19.316406 -1.347656 19.578125 -1.109375 C 19.847656 -0.867188 20.195312 -0.660156 20.625 -0.484375 L 21.0625 -0.3125 L 21.0625 0 L 14.96875 0 L 9.921875 -10.734375 L 7.609375 -10.734375 L 7.609375 -2.3125 C 7.609375 -1.882812 7.675781 -1.535156 7.8125 -1.265625 C 7.945312 -0.992188 8.226562 -0.785156 8.65625 -0.640625 L 9.484375 -0.34375 L 9.484375 0 Z M 7.609375 -11.421875 L 9.234375 -11.421875 C 10.867188 -11.421875 12.050781 -11.859375 12.78125 -12.734375 C 13.507812 -13.609375 13.875 -14.910156 13.875 -16.640625 C 13.875 -18.390625 13.53125 -19.6875 12.84375 -20.53125 C 12.164062 -21.382812 11.019531 -21.8125 9.40625 -21.8125 L 7.609375 -21.8125 Z M 7.609375 -11.421875 "/></g></g></g><g fill="#ffffff" fill-opacity="1"><g transform="translate(146.472949, 79.927165)"><g><path d="M 5.625 0 L 5.625 -0.34375 L 6.640625 -0.609375 C 7.441406 -0.835938 7.84375 -1.40625 7.84375 -2.3125 L 7.84375 -8.796875 L 2.21875 -20.25 C 2.007812 -20.707031 1.816406 -21.046875 1.640625 -21.265625 C 1.472656 -21.492188 1.222656 -21.691406 0.890625 -21.859375 L 0.265625 -22.15625 L 0.265625 -22.5 L 9.40625 -22.5 L 9.40625 -22.15625 L 8.796875 -21.921875 C 8.296875 -21.710938 8.019531 -21.429688 7.96875 -21.078125 C 7.925781 -20.734375 8.019531 -20.300781 8.25 -19.78125 L 12.28125 -10.84375 L 16.78125 -20.109375 C 16.957031 -20.472656 17.023438 -20.847656 16.984375 -21.234375 C 16.953125 -21.617188 16.710938 -21.867188 16.265625 -21.984375 L 15.78125 -22.15625 L 15.78125 -22.5 L 19.875 -22.5 L 19.875 -22.15625 L 19.234375 -21.921875 C 18.796875 -21.765625 18.472656 -21.539062 18.265625 -21.25 C 18.066406 -20.96875 17.863281 -20.613281 17.65625 -20.1875 L 12.984375 -10.359375 L 12.984375 -2.3125 C 12.984375 -1.863281 13.066406 -1.492188 13.234375 -1.203125 C 13.410156 -0.921875 13.71875 -0.722656 14.15625 -0.609375 L 15.203125 -0.34375 L 15.203125 0 Z M 5.625 0 "/></g></g></g><g fill="#ffffff" fill-opacity="1"><g transform="translate(137.646, 110.535653)"><g><path d="M 0.75 0 L 0.75 -0.34375 L 1.359375 -0.578125 C 1.816406 -0.765625 2.128906 -0.992188 2.296875 -1.265625 C 2.472656 -1.535156 2.5625 -1.898438 2.5625 -2.359375 L 2.5625 -20.15625 C 2.5625 -20.625 2.472656 -20.992188 2.296875 -21.265625 C 2.128906 -21.546875 1.816406 -21.765625 1.359375 -21.921875 L 0.75 -22.15625 L 0.75 -22.5 L 10.53125 -22.5 C 13.300781 -22.5 15.300781 -21.992188 16.53125 -20.984375 C 17.757812 -19.972656 18.375 -18.695312 18.375 -17.15625 C 18.375 -15.988281 17.925781 -14.929688 17.03125 -13.984375 C 16.132812 -13.046875 14.59375 -12.382812 12.40625 -12 C 14.90625 -11.726562 16.734375 -11.070312 17.890625 -10.03125 C 19.054688 -9 19.640625 -7.742188 19.640625 -6.265625 C 19.640625 -5.546875 19.476562 -4.816406 19.15625 -4.078125 C 18.84375 -3.335938 18.304688 -2.660156 17.546875 -2.046875 C 16.785156 -1.429688 15.742188 -0.9375 14.421875 -0.5625 C 13.097656 -0.1875 11.425781 0 9.40625 0 Z M 7.609375 -12.03125 L 9.0625 -12.03125 C 10.59375 -12.03125 11.691406 -12.382812 12.359375 -13.09375 C 13.023438 -13.800781 13.359375 -15.03125 13.359375 -16.78125 C 13.359375 -18.59375 13.050781 -19.882812 12.4375 -20.65625 C 11.832031 -21.425781 10.832031 -21.8125 9.4375 -21.8125 L 7.609375 -21.8125 Z M 7.609375 -0.6875 L 9.3125 -0.6875 C 11.007812 -0.6875 12.273438 -1.140625 13.109375 -2.046875 C 13.941406 -2.953125 14.359375 -4.375 14.359375 -6.3125 C 14.359375 -8.125 13.957031 -9.414062 13.15625 -10.1875 C 12.363281 -10.96875 11.054688 -11.359375 9.234375 -11.359375 L 7.609375 -11.359375 Z M 7.609375 -0.6875 "/></g></g></g><g fill="#ffffff" fill-opacity="1"><g transform="translate(158.030205, 110.535653)"><g><path d="M 0.265625 0 L 0.265625 -0.34375 L 1.125 -0.640625 C 1.582031 -0.828125 1.9375 -1.050781 2.1875 -1.3125 C 2.4375 -1.570312 2.640625 -1.941406 2.796875 -2.421875 L 9.8125 -22.5625 L 12.71875 -22.5625 L 19.640625 -2.28125 C 19.816406 -1.78125 20.019531 -1.398438 20.25 -1.140625 C 20.476562 -0.878906 20.832031 -0.660156 21.3125 -0.484375 L 21.71875 -0.34375 L 21.71875 0 L 13.0625 0 L 13.0625 -0.34375 L 13.5625 -0.515625 C 14.039062 -0.691406 14.332031 -0.941406 14.4375 -1.265625 C 14.539062 -1.597656 14.523438 -1.992188 14.390625 -2.453125 L 12.78125 -7.359375 L 5.21875 -7.359375 L 3.578125 -2.5625 C 3.421875 -2.0625 3.367188 -1.660156 3.421875 -1.359375 C 3.484375 -1.066406 3.753906 -0.828125 4.234375 -0.640625 L 4.984375 -0.34375 L 4.984375 0 Z M 5.453125 -8.046875 L 12.578125 -8.046875 L 9.140625 -18.65625 Z M 5.453125 -8.046875 "/></g></g></g><g fill="#ffffff" fill-opacity="1"><g transform="translate(180.186941, 110.535653)"><g><path d="M 0.75 0 L 0.75 -0.34375 L 1.46875 -0.609375 C 1.945312 -0.796875 2.25 -1.019531 2.375 -1.28125 C 2.5 -1.539062 2.5625 -1.898438 2.5625 -2.359375 L 2.5625 -20.15625 C 2.5625 -20.601562 2.488281 -20.960938 2.34375 -21.234375 C 2.207031 -21.515625 1.914062 -21.734375 1.46875 -21.890625 L 0.75 -22.15625 L 0.75 -22.5 L 9.4375 -22.5 L 9.4375 -22.15625 L 8.828125 -21.890625 C 8.398438 -21.734375 8.101562 -21.507812 7.9375 -21.21875 C 7.78125 -20.9375 7.703125 -20.566406 7.703125 -20.109375 L 7.703125 -0.6875 L 12.953125 -0.6875 C 13.796875 -0.6875 14.414062 -0.890625 14.8125 -1.296875 C 15.207031 -1.703125 15.585938 -2.289062 15.953125 -3.0625 L 17.28125 -5.9375 L 17.625 -5.9375 L 17.3125 0 Z M 0.75 0 "/></g></g></g><g fill="#ffffff" fill-opacity="1"><g transform="translate(198.594083, 110.535653)"><g><path d="M 11.421875 0.609375 C 10.035156 0.609375 8.695312 0.359375 7.40625 -0.140625 C 6.125 -0.640625 4.976562 -1.382812 3.96875 -2.375 C 2.957031 -3.363281 2.15625 -4.59375 1.5625 -6.0625 C 0.976562 -7.539062 0.6875 -9.269531 0.6875 -11.25 C 0.6875 -13.207031 0.976562 -14.921875 1.5625 -16.390625 C 2.15625 -17.867188 2.960938 -19.101562 3.984375 -20.09375 C 5.003906 -21.082031 6.15625 -21.832031 7.4375 -22.34375 C 8.726562 -22.851562 10.054688 -23.109375 11.421875 -23.109375 C 12.804688 -23.109375 14.140625 -22.863281 15.421875 -22.375 C 16.710938 -21.894531 17.863281 -21.160156 18.875 -20.171875 C 19.882812 -19.179688 20.679688 -17.941406 21.265625 -16.453125 C 21.859375 -14.960938 22.15625 -13.226562 22.15625 -11.25 C 22.15625 -9.320312 21.859375 -7.613281 21.265625 -6.125 C 20.679688 -4.632812 19.882812 -3.394531 18.875 -2.40625 C 17.863281 -1.414062 16.710938 -0.664062 15.421875 -0.15625 C 14.140625 0.351562 12.804688 0.609375 11.421875 0.609375 Z M 11.421875 -0.109375 C 12.671875 -0.109375 13.679688 -0.441406 14.453125 -1.109375 C 15.222656 -1.773438 15.785156 -2.921875 16.140625 -4.546875 C 16.492188 -6.171875 16.671875 -8.40625 16.671875 -11.25 C 16.671875 -14.113281 16.492188 -16.359375 16.140625 -17.984375 C 15.785156 -19.609375 15.222656 -20.753906 14.453125 -21.421875 C 13.679688 -22.097656 12.671875 -22.4375 11.421875 -22.4375 C 10.191406 -22.4375 9.191406 -22.097656 8.421875 -21.421875 C 7.648438 -20.753906 7.085938 -19.609375 6.734375 -17.984375 C 6.378906 -16.359375 6.203125 -14.113281 6.203125 -11.25 C 6.203125 -8.40625 6.378906 -6.171875 6.734375 -4.546875 C 7.085938 -2.921875 7.648438 -1.773438 8.421875 -1.109375 C 9.191406 -0.441406 10.191406 -0.109375 11.421875 -0.109375 Z M 11.421875 -0.109375 "/></g></g></g><g fill="#ffffff" fill-opacity="1"><g transform="translate(221.432566, 110.535653)"><g><path d="M 12.40625 0.609375 C 10.09375 0.609375 8.050781 0.128906 6.28125 -0.828125 C 4.519531 -1.796875 3.144531 -3.171875 2.15625 -4.953125 C 1.175781 -6.742188 0.6875 -8.851562 0.6875 -11.28125 C 0.6875 -13.644531 1.171875 -15.710938 2.140625 -17.484375 C 3.117188 -19.265625 4.535156 -20.644531 6.390625 -21.625 C 8.242188 -22.613281 10.488281 -23.109375 13.125 -23.109375 C 14.332031 -23.109375 15.453125 -22.972656 16.484375 -22.703125 C 17.515625 -22.429688 18.5 -22.035156 19.4375 -21.515625 L 19.5625 -16.734375 L 19.234375 -16.734375 L 17.3125 -20.28125 C 17.019531 -20.851562 16.75 -21.265625 16.5 -21.515625 C 16.25 -21.765625 15.929688 -21.957031 15.546875 -22.09375 C 15.179688 -22.207031 14.84375 -22.289062 14.53125 -22.34375 C 14.226562 -22.40625 13.828125 -22.4375 13.328125 -22.4375 C 11.921875 -22.4375 10.675781 -22.0625 9.59375 -21.3125 C 8.519531 -20.5625 7.6875 -19.367188 7.09375 -17.734375 C 6.5 -16.097656 6.203125 -13.945312 6.203125 -11.28125 C 6.203125 -8.644531 6.476562 -6.5 7.03125 -4.84375 C 7.59375 -3.1875 8.382812 -1.972656 9.40625 -1.203125 C 10.425781 -0.441406 11.609375 -0.0625 12.953125 -0.0625 C 13.160156 -0.0625 13.359375 -0.078125 13.546875 -0.109375 C 13.742188 -0.148438 13.929688 -0.191406 14.109375 -0.234375 C 14.546875 -0.304688 14.832031 -0.488281 14.96875 -0.78125 C 15.101562 -1.082031 15.171875 -1.4375 15.171875 -1.84375 L 15.171875 -8.59375 C 15.171875 -9.476562 14.71875 -10.023438 13.8125 -10.234375 L 12.234375 -10.640625 L 12.234375 -10.984375 L 21.859375 -10.984375 L 21.859375 -10.640625 L 21.375 -10.5 C 20.507812 -10.226562 20.078125 -9.660156 20.078125 -8.796875 L 20.078125 -1.390625 C 18.898438 -0.734375 17.703125 -0.238281 16.484375 0.09375 C 15.265625 0.4375 13.90625 0.609375 12.40625 0.609375 Z M 12.40625 0.609375 "/></g></g></g><g fill="#ffffff" fill-opacity="1"><g transform="translate(243.793835, 110.535653)"><g><path d="M 11.5625 0.609375 C 9.832031 0.609375 8.300781 0.300781 6.96875 -0.3125 C 5.644531 -0.925781 4.613281 -1.894531 3.875 -3.21875 C 3.132812 -4.550781 2.765625 -6.304688 2.765625 -8.484375 L 2.765625 -20.25 C 2.765625 -21.113281 2.320312 -21.679688 1.4375 -21.953125 L 0.6875 -22.15625 L 0.6875 -22.5 L 10.125 -22.5 L 10.125 -22.15625 L 9.140625 -21.890625 C 8.296875 -21.679688 7.875 -21.113281 7.875 -20.1875 L 7.875 -7.609375 C 7.875 -5.492188 8.316406 -3.925781 9.203125 -2.90625 C 10.085938 -1.894531 11.363281 -1.390625 13.03125 -1.390625 C 14.75 -1.390625 16.113281 -1.925781 17.125 -3 C 18.144531 -4.070312 18.65625 -5.582031 18.65625 -7.53125 L 18.65625 -20.046875 C 18.65625 -20.503906 18.578125 -20.90625 18.421875 -21.25 C 18.273438 -21.601562 17.976562 -21.835938 17.53125 -21.953125 L 16.671875 -22.15625 L 16.671875 -22.5 L 21.4375 -22.5 L 21.4375 -22.15625 L 20.53125 -21.921875 C 20.09375 -21.828125 19.804688 -21.609375 19.671875 -21.265625 C 19.535156 -20.929688 19.46875 -20.535156 19.46875 -20.078125 L 19.46875 -7.609375 C 19.46875 -5.941406 19.132812 -4.488281 18.46875 -3.25 C 17.8125 -2.007812 16.890625 -1.054688 15.703125 -0.390625 C 14.523438 0.273438 13.144531 0.609375 11.5625 0.609375 Z M 11.5625 0.609375 "/></g></g></g><g fill="#ffffff" fill-opacity="1"><g transform="translate(265.916492, 110.535653)"><g><path d="M 1.1875 0 L 1.1875 -0.34375 L 2.3125 -0.6875 C 2.726562 -0.800781 3.023438 -1.019531 3.203125 -1.34375 C 3.390625 -1.675781 3.484375 -2.066406 3.484375 -2.515625 L 3.484375 -18.921875 C 3.234375 -19.460938 3.03125 -19.867188 2.875 -20.140625 C 2.726562 -20.421875 2.5625 -20.65625 2.375 -20.84375 C 2.195312 -21.039062 1.953125 -21.285156 1.640625 -21.578125 L 1.0625 -22.15625 L 1.0625 -22.5 L 7.09375 -22.5 L 18.40625 -7.0625 L 18.40625 -19.90625 C 18.40625 -20.363281 18.332031 -20.773438 18.1875 -21.140625 C 18.039062 -21.503906 17.738281 -21.742188 17.28125 -21.859375 L 16.15625 -22.15625 L 16.15625 -22.5 L 21.03125 -22.5 L 21.03125 -22.15625 L 20.109375 -21.859375 C 19.703125 -21.722656 19.453125 -21.484375 19.359375 -21.140625 C 19.273438 -20.796875 19.234375 -20.394531 19.234375 -19.9375 L 19.234375 0.109375 L 17.3125 0.109375 L 4.296875 -17.796875 L 4.296875 -2.515625 C 4.296875 -2.066406 4.363281 -1.679688 4.5 -1.359375 C 4.632812 -1.046875 4.921875 -0.820312 5.359375 -0.6875 L 6.375 -0.34375 L 6.375 0 Z M 1.1875 0 "/></g></g></g></svg>